<?xml version="1.0" encoding="UTF-8"?>
<svg id="Layer_2" data-name="Layer 2" xmlns="http://www.w3.org/2000/svg" viewBox="0 0 370.06 84.72">
  <defs>
    <style>
      .cls-1 {
        fill: #010101;
      }
    </style>
  </defs>
  <g id="Layer_1-2" data-name="Layer 1">
    <g>
      <path class="cls-1" d="M48.52,29.85c5.03,4.04,8.18,9.59,9.4,16.55h-13.07c-.71-3.76-2.44-6.68-5.22-8.79s-6.25-3.2-10.39-3.2c-4.75,0-8.7,1.69-11.85,5.03s-4.75,8.27-4.75,14.72,1.6,11.42,4.75,14.76c3.15,3.39,7.1,5.08,11.85,5.08,4.18,0,7.66-1.08,10.39-3.24,2.77-2.16,4.51-5.12,5.22-8.84h13.07c-1.22,6.96-4.37,12.51-9.4,16.6-5.03,4.09-11.42,6.16-19.09,6.16-5.74,0-10.86-1.22-15.28-3.67-4.42-2.44-7.9-5.97-10.39-10.58-2.54-4.61-3.76-10.01-3.76-16.31s1.27-11.57,3.76-16.17c2.54-4.61,5.97-8.13,10.39-10.58,4.42-2.4,9.5-3.62,15.23-3.62,7.71,0,14.06,2.02,19.14,6.11Z"/>
      <rect class="cls-1" x="134.51" y="4.09" width="12.32" height="79.83"/>
      <path class="cls-1" d="M213.68,37.99c-2.59-4.61-6.21-8.13-10.81-10.58-4.61-2.44-9.78-3.67-15.52-3.67s-10.91,1.22-15.47,3.67c-4.56,2.44-8.18,5.97-10.81,10.58s-3.95,10.01-3.95,16.17,1.32,11.61,3.95,16.22c2.63,4.65,6.21,8.18,10.81,10.63,4.56,2.44,9.73,3.67,15.47,3.67s10.95-1.22,15.52-3.67c4.61-2.44,8.18-5.97,10.81-10.58,2.59-4.61,3.9-10.01,3.9-16.31s-1.32-11.52-3.9-16.13ZM202.54,65.16c-1.6,2.96-3.76,5.12-6.44,6.58-2.68,1.46-5.59,2.16-8.74,2.16s-6.06-.71-8.74-2.16-4.8-3.62-6.44-6.58c-1.6-2.96-2.44-6.63-2.44-11s.8-7.95,2.44-10.95c1.6-2.96,3.76-5.22,6.44-6.63,2.68-1.46,5.59-2.16,8.74-2.16s6.06.71,8.74,2.16c2.68,1.46,4.8,3.67,6.44,6.63,1.6,3.01,2.44,6.63,2.44,10.95-.05,4.42-.85,8.09-2.44,11Z"/>
      <path class="cls-1" d="M296.62,2.07c1.46-1.36,3.34-2.07,5.74-2.07s4.28.71,5.78,2.07c1.46,1.36,2.21,3.1,2.21,5.17s-.75,3.76-2.21,5.08c-1.46,1.32-3.39,1.93-5.78,1.93s-4.28-.66-5.74-1.93c-1.46-1.32-2.16-2.96-2.16-5.08,0-2.07.71-3.81,2.16-5.17Z"/>
      <rect class="cls-1" x="296.2" y="24.49" width="12.32" height="59.47"/>
      <path class="cls-1" d="M123.98,54.16c0-6.21-1.27-11.57-3.76-16.17-2.54-4.61-5.97-8.13-10.39-10.58-4.42-2.44-9.5-3.67-15.28-3.67s-10.86,1.22-15.28,3.67c-4.42,2.44-7.9,5.97-10.39,10.58-2.54,4.61-3.76,10.01-3.76,16.17s1.27,11.71,3.76,16.31c2.54,4.61,5.97,8.13,10.39,10.58,4.42,2.44,9.5,3.67,15.28,3.67s10.86-1.22,15.28-3.67c4.42-2.44,7.9-5.97,10.39-10.58,1.22-2.21,2.12-4.61,2.77-7.24h-12.04c-.85,2.91-2.21,5.27-4.09,7.01-3.15,2.96-7.62,4.42-12.32,4.42s-9.12-1.46-12.32-4.42c-3.15-2.96-4.84-7.48-5.08-13.59h46.73c.05-.8.09-1.65.09-2.49ZM77.43,48.1c.66-4.33,2.35-7.71,4.98-10.11,3.24-2.96,7.29-4.42,12.08-4.42s8.84,1.46,12.08,4.42c2.68,2.44,4.33,5.78,4.98,10.11h-34.13Z"/>
      <path class="cls-1" d="M277.06,30.09c4.18,4.47,6.25,10.86,6.25,19.14v34.74h-12.32v-33.43c0-5.36-1.36-9.45-4.09-12.41-2.73-2.91-6.49-4.37-11.24-4.37s-8.84,1.55-11.8,4.7-4.42,7.76-4.42,13.78v31.69h-12.32V24.64h12.32v10.72c3.1-5.92,10.16-12.04,20.97-12.04,6.91.05,12.46,2.3,16.64,6.77Z"/>
      <path class="cls-1" d="M368.6,41.84h-11.99c0-6.3-6.35-9.31-12.79-9.31-4.89,0-10.53,2.54-10.53,7.33s5.31,6.58,15,9.36c12.65,3.62,21.77,6.82,21.77,18.71,0,11.1-12.74,16.64-24.87,16.64-14.72,0-27.17-7.48-27.17-19.89h12.6c.28,6.63,7.99,10.06,14.25,10.06s13.45-1.88,13.45-7.24c0-6.21-5.22-7.29-15.52-10.44-12.98-3.9-21.82-6.25-21.82-17.07s11.57-16.64,23.32-16.64c14.72,0,24.31,7.9,24.31,18.48Z"/>
    </g>
  </g>
</svg>